<svg width="24" height="24" viewBox="0 0 24 24" fill="none" xmlns="http://www.w3.org/2000/svg">
<g filter="url(#filter0_d_1913_6272)">
<path d="M15.6484 4.64844L16.3516 5.35156L10.5 11.2031L7.64844 8.35156L8.35156 7.64844L10.5 9.79688L15.6484 4.64844ZM12 0C12.7344 0 13.4427 0.09375 14.125 0.28125C14.8073 0.46875 15.4453 0.736979 16.0391 1.08594C16.6328 1.4349 17.1719 1.85156 17.6562 2.33594C18.1406 2.82031 18.5573 3.36198 18.9062 3.96094C19.2552 4.5599 19.5234 5.19792 19.7109 5.875C19.8984 6.55208 19.9948 7.26042 20 8C20 8.73438 19.9062 9.44271 19.7188 10.125C19.5312 10.8073 19.263 11.4453 18.9141 12.0391C18.5651 12.6328 18.1484 13.1719 17.6641 13.6562C17.1797 14.1406 16.638 14.5573 16.0391 14.9062C15.4401 15.2552 14.8021 15.5234 14.125 15.7109C13.4479 15.8984 12.7396 15.9948 12 16C11.2656 16 10.5573 15.9062 9.875 15.7188C9.19271 15.5312 8.55469 15.263 7.96094 14.9141C7.36719 14.5651 6.82812 14.1484 6.34375 13.6641C5.85938 13.1797 5.44271 12.638 5.09375 12.0391C4.74479 11.4401 4.47656 10.8047 4.28906 10.1328C4.10156 9.46094 4.00521 8.75 4 8C4 7.26562 4.09375 6.55729 4.28125 5.875C4.46875 5.19271 4.73698 4.55469 5.08594 3.96094C5.4349 3.36719 5.85156 2.82812 6.33594 2.34375C6.82031 1.85938 7.36198 1.44271 7.96094 1.09375C8.5599 0.744792 9.19531 0.476562 9.86719 0.289062C10.5391 0.101562 11.25 0.00520833 12 0ZM12 15C12.6406 15 13.2578 14.9167 13.8516 14.75C14.4453 14.5833 15.0026 14.349 15.5234 14.0469C16.0443 13.7448 16.5182 13.3776 16.9453 12.9453C17.3724 12.513 17.737 12.0417 18.0391 11.5312C18.3411 11.0208 18.5781 10.4635 18.75 9.85938C18.9219 9.25521 19.0052 8.63542 19 8C19 7.35938 18.9167 6.74219 18.75 6.14844C18.5833 5.55469 18.349 4.9974 18.0469 4.47656C17.7448 3.95573 17.3776 3.48177 16.9453 3.05469C16.513 2.6276 16.0417 2.26302 15.5312 1.96094C15.0208 1.65885 14.4635 1.42188 13.8594 1.25C13.2552 1.07812 12.6354 0.994792 12 1C11.3594 1 10.7422 1.08333 10.1484 1.25C9.55469 1.41667 8.9974 1.65104 8.47656 1.95312C7.95573 2.25521 7.48177 2.6224 7.05469 3.05469C6.6276 3.48698 6.26302 3.95833 5.96094 4.46875C5.65885 4.97917 5.42188 5.53646 5.25 6.14062C5.07812 6.74479 4.99479 7.36458 5 8C5 8.64062 5.08333 9.25781 5.25 9.85156C5.41667 10.4453 5.65104 11.0026 5.95312 11.5234C6.25521 12.0443 6.6224 12.5182 7.05469 12.9453C7.48698 13.3724 7.95833 13.737 8.46875 14.0391C8.97917 14.3411 9.53646 14.5781 10.1406 14.75C10.7448 14.9219 11.3646 15.0052 12 15Z" fill="#FFDDD2"/>
</g>
<defs>
<filter id="filter0_d_1913_6272" x="0" y="0" width="24" height="24" filterUnits="userSpaceOnUse" color-interpolation-filters="sRGB">
<feFlood flood-opacity="0" result="BackgroundImageFix"/>
<feColorMatrix in="SourceAlpha" type="matrix" values="0 0 0 0 0 0 0 0 0 0 0 0 0 0 0 0 0 0 127 0" result="hardAlpha"/>
<feOffset dy="4"/>
<feGaussianBlur stdDeviation="2"/>
<feComposite in2="hardAlpha" operator="out"/>
<feColorMatrix type="matrix" values="0 0 0 0 0 0 0 0 0 0 0 0 0 0 0 0 0 0 0.25 0"/>
<feBlend mode="normal" in2="BackgroundImageFix" result="effect1_dropShadow_1913_6272"/>
<feBlend mode="normal" in="SourceGraphic" in2="effect1_dropShadow_1913_6272" result="shape"/>
</filter>
</defs>
</svg>
